<svg width="57" height="58" viewBox="0 0 57 58" fill="none" xmlns="http://www.w3.org/2000/svg">
<rect x="0.322876" width="56.3756" height="58" rx="4" fill="#B5F2E3"/>
<g filter="url(#filter0_d_1_143)">
<path d="M34.1011 23.6687C36.918 23.6687 39.2026 21.2812 39.2026 18.3375C39.2026 15.3938 36.918 13 34.1011 13H23.8922C21.0754 13 18.7908 15.3875 18.7908 18.3313C18.7908 21.275 21.0754 23.6625 23.8922 23.6625C21.0754 23.6688 18.7908 26.0562 18.7908 29C18.7908 31.9438 21.0754 34.3312 23.8922 34.3312C21.0754 34.3312 18.7908 36.7188 18.7908 39.6688C18.7908 42.6188 21.0754 45 23.8922 45C26.7091 45 28.9937 42.6125 28.9937 39.6688V23.6687H34.1011ZM34.1011 23.6687C31.2843 23.6687 28.9997 26.0562 28.9997 29C28.9997 31.9438 31.2843 34.3312 34.1011 34.3312C36.918 34.3312 39.2026 31.9438 39.2026 29C39.2026 26.0562 36.918 23.6687 34.1011 23.6687Z" fill="white"/>
</g>
<defs>
<filter id="filter0_d_1_143" x="16.7908" y="13" width="28.4119" height="40" filterUnits="userSpaceOnUse" color-interpolation-filters="sRGB">
<feFlood flood-opacity="0" result="BackgroundImageFix"/>
<feColorMatrix in="SourceAlpha" type="matrix" values="0 0 0 0 0 0 0 0 0 0 0 0 0 0 0 0 0 0 127 0" result="hardAlpha"/>
<feOffset dx="2" dy="4"/>
<feGaussianBlur stdDeviation="2"/>
<feColorMatrix type="matrix" values="0 0 0 0 0.270588 0 0 0 0 0.345098 0 0 0 0 0.501961 0 0 0 0.2 0"/>
<feBlend mode="normal" in2="BackgroundImageFix" result="effect1_dropShadow_1_143"/>
<feBlend mode="normal" in="SourceGraphic" in2="effect1_dropShadow_1_143" result="shape"/>
</filter>
</defs>
</svg>
