<svg width="57" height="58" viewBox="0 0 57 58" fill="none" xmlns="http://www.w3.org/2000/svg">
<rect x="0.322876" width="56.3756" height="58" rx="4" fill="#FACFCA"/>
<g clip-path="url(#clip0_1_130)">
<g filter="url(#filter0_d_1_130)">
<path d="M38.2306 30H33.3707C32.0342 30 30.9407 31.125 30.9407 32.5V40C30.9407 41.375 32.0342 42.5 33.3707 42.5H38.2306C39.5671 42.5 40.6606 41.375 40.6606 40V32.5C40.6606 31.125 39.5671 30 38.2306 30Z" fill="white"/>
<path d="M23.6507 17.5H18.7908C17.4543 17.5 16.3608 18.625 16.3608 20V27.5C16.3608 28.875 17.4543 30 18.7908 30H23.6507C24.9872 30 26.0807 28.875 26.0807 27.5V20C26.0807 18.625 24.9872 17.5 23.6507 17.5Z" fill="white"/>
<path d="M38.2306 17.5H33.3707C32.0342 17.5 30.9407 18.625 30.9407 20V22.5C30.9407 23.875 32.0342 25 33.3707 25H38.2306C39.5671 25 40.6606 23.875 40.6606 22.5V20C40.6606 18.625 39.5671 17.5 38.2306 17.5Z" fill="white"/>
<path d="M23.6507 35H18.7908C17.4543 35 16.3608 36.125 16.3608 37.5V40C16.3608 41.375 17.4543 42.5 18.7908 42.5H23.6507C24.9872 42.5 26.0807 41.375 26.0807 40V37.5C26.0807 36.125 24.9872 35 23.6507 35Z" fill="white"/>
</g>
</g>
<defs>
<filter id="filter0_d_1_130" x="14.3608" y="17.5" width="32.2998" height="33" filterUnits="userSpaceOnUse" color-interpolation-filters="sRGB">
<feFlood flood-opacity="0" result="BackgroundImageFix"/>
<feColorMatrix in="SourceAlpha" type="matrix" values="0 0 0 0 0 0 0 0 0 0 0 0 0 0 0 0 0 0 127 0" result="hardAlpha"/>
<feOffset dx="2" dy="4"/>
<feGaussianBlur stdDeviation="2"/>
<feColorMatrix type="matrix" values="0 0 0 0 0.270588 0 0 0 0 0.345098 0 0 0 0 0.501961 0 0 0 0.2 0"/>
<feBlend mode="normal" in2="BackgroundImageFix" result="effect1_dropShadow_1_130"/>
<feBlend mode="normal" in="SourceGraphic" in2="effect1_dropShadow_1_130" result="shape"/>
</filter>
<clipPath id="clip0_1_130">
<rect width="29.1598" height="30" fill="white" transform="translate(13.9308 15)"/>
</clipPath>
</defs>
</svg>
